# gear example — generated by scripts/generate-examples.mjs
o gear
v 6 0 0
v 9.945219 1.045285 0
v 9.135455 4.067366 0
v 5.196152 3 0
v 5.196152 3 0
v 8.09017 5.877853 0
v 5.877853 8.09017 0
v 3 5.196152 0
v 3 5.196152 0
v 4.067366 9.135455 0
v 1.045285 9.945219 0
v 0 6 0
v 0 6 0
v -1.045285 9.945219 0
v -4.067366 9.135455 0
v -3 5.196152 0
v -3 5.196152 0
v -5.877853 8.09017 0
v -8.09017 5.877853 0
v -5.196152 3 0
v -5.196152 3 0
v -9.135455 4.067366 0
v -9.945219 1.045285 0
v -6 0 0
v -6 0 0
v -9.945219 -1.045285 0
v -9.135455 -4.067366 0
v -5.196152 -3 0
v -5.196152 -3 0
v -8.09017 -5.877853 0
v -5.877853 -8.09017 0
v -3 -5.196152 0
v -3 -5.196152 0
v -4.067366 -9.135455 0
v -1.045285 -9.945219 0
v 0 -6 0
v 0 -6 0
v 1.045285 -9.945219 0
v 4.067366 -9.135455 0
v 3 -5.196152 0
v 3 -5.196152 0
v 5.877853 -8.09017 0
v 8.09017 -5.877853 0
v 5.196152 -3 0
v 5.196152 -3 0
v 9.135455 -4.067366 0
v 9.945219 -1.045285 0
v 6 0 0
v 6 0 3
v 9.945219 1.045285 3
v 9.135455 4.067366 3
v 5.196152 3 3
v 5.196152 3 3
v 8.09017 5.877853 3
v 5.877853 8.09017 3
v 3 5.196152 3
v 3 5.196152 3
v 4.067366 9.135455 3
v 1.045285 9.945219 3
v 0 6 3
v 0 6 3
v -1.045285 9.945219 3
v -4.067366 9.135455 3
v -3 5.196152 3
v -3 5.196152 3
v -5.877853 8.09017 3
v -8.09017 5.877853 3
v -5.196152 3 3
v -5.196152 3 3
v -9.135455 4.067366 3
v -9.945219 1.045285 3
v -6 0 3
v -6 0 3
v -9.945219 -1.045285 3
v -9.135455 -4.067366 3
v -5.196152 -3 3
v -5.196152 -3 3
v -8.09017 -5.877853 3
v -5.877853 -8.09017 3
v -3 -5.196152 3
v -3 -5.196152 3
v -4.067366 -9.135455 3
v -1.045285 -9.945219 3
v 0 -6 3
v 0 -6 3
v 1.045285 -9.945219 3
v 4.067366 -9.135455 3
v 3 -5.196152 3
v 3 -5.196152 3
v 5.877853 -8.09017 3
v 8.09017 -5.877853 3
v 5.196152 -3 3
v 5.196152 -3 3
v 9.135455 -4.067366 3
v 9.945219 -1.045285 3
v 6 0 3
f 1 2 3
f 1 3 4
f 1 4 5
f 1 5 6
f 1 6 7
f 1 7 8
f 1 8 9
f 1 9 10
f 1 10 11
f 1 11 12
f 1 12 13
f 1 13 14
f 1 14 15
f 1 15 16
f 1 16 17
f 1 17 18
f 1 18 19
f 1 19 20
f 1 20 21
f 1 21 22
f 1 22 23
f 1 23 24
f 1 24 25
f 1 25 26
f 1 26 27
f 1 27 28
f 1 28 29
f 1 29 30
f 1 30 31
f 1 31 32
f 1 32 33
f 1 33 34
f 1 34 35
f 1 35 36
f 1 36 37
f 1 37 38
f 1 38 39
f 1 39 40
f 1 40 41
f 1 41 42
f 1 42 43
f 1 43 44
f 1 44 45
f 1 45 46
f 1 46 47
f 1 47 48
f 49 50 51
f 49 51 52
f 49 52 53
f 49 53 54
f 49 54 55
f 49 55 56
f 49 56 57
f 49 57 58
f 49 58 59
f 49 59 60
f 49 60 61
f 49 61 62
f 49 62 63
f 49 63 64
f 49 64 65
f 49 65 66
f 49 66 67
f 49 67 68
f 49 68 69
f 49 69 70
f 49 70 71
f 49 71 72
f 49 72 73
f 49 73 74
f 49 74 75
f 49 75 76
f 49 76 77
f 49 77 78
f 49 78 79
f 49 79 80
f 49 80 81
f 49 81 82
f 49 82 83
f 49 83 84
f 49 84 85
f 49 85 86
f 49 86 87
f 49 87 88
f 49 88 89
f 49 89 90
f 49 90 91
f 49 91 92
f 49 92 93
f 49 93 94
f 49 94 95
f 49 95 96
f 1 49 50
f 1 50 2
f 2 50 51
f 2 51 3
f 3 51 52
f 3 52 4
f 4 52 53
f 4 53 5
f 5 53 54
f 5 54 6
f 6 54 55
f 6 55 7
f 7 55 56
f 7 56 8
f 8 56 57
f 8 57 9
f 9 57 58
f 9 58 10
f 10 58 59
f 10 59 11
f 11 59 60
f 11 60 12
f 12 60 61
f 12 61 13
f 13 61 62
f 13 62 14
f 14 62 63
f 14 63 15
f 15 63 64
f 15 64 16
f 16 64 65
f 16 65 17
f 17 65 66
f 17 66 18
f 18 66 67
f 18 67 19
f 19 67 68
f 19 68 20
f 20 68 69
f 20 69 21
f 21 69 70
f 21 70 22
f 22 70 71
f 22 71 23
f 23 71 72
f 23 72 24
f 24 72 73
f 24 73 25
f 25 73 74
f 25 74 26
f 26 74 75
f 26 75 27
f 27 75 76
f 27 76 28
f 28 76 77
f 28 77 29
f 29 77 78
f 29 78 30
f 30 78 79
f 30 79 31
f 31 79 80
f 31 80 32
f 32 80 81
f 32 81 33
f 33 81 82
f 33 82 34
f 34 82 83
f 34 83 35
f 35 83 84
f 35 84 36
f 36 84 85
f 36 85 37
f 37 85 86
f 37 86 38
f 38 86 87
f 38 87 39
f 39 87 88
f 39 88 40
f 40 88 89
f 40 89 41
f 41 89 90
f 41 90 42
f 42 90 91
f 42 91 43
f 43 91 92
f 43 92 44
f 44 92 93
f 44 93 45
f 45 93 94
f 45 94 46
f 46 94 95
f 46 95 47
f 47 95 96
f 47 96 48
f 48 96 49
f 48 49 1
